<svg id="Layer_2" data-name="Layer 2" xmlns="http://www.w3.org/2000/svg" viewBox="0 0 71.07 69.15"><defs><style>.cls-1{fill:#ffb96a;}.cls-2{fill:#77d379;}</style></defs><path class="cls-1" d="M37,88a8,8,0,1,1,8-8A8,8,0,0,1,37,88Zm0-10a2,2,0,1,0,2,2A2,2,0,0,0,37,78Z" transform="translate(-11 -18.85)"/><path class="cls-1" d="M63,88a8,8,0,1,1,8-8A8,8,0,0,1,63,88Zm0-10a2,2,0,1,0,2,2A2,2,0,0,0,63,78Z" transform="translate(-11 -18.85)"/><path class="cls-2" d="M32,60H66a2.44,2.44,0,0,0,.54,0h.17l.35-.11.18-.07a2.43,2.43,0,0,0,.35-.2.21.21,0,0,0,.1-.06,1.8,1.8,0,0,0,.4-.33l.1-.1a1.76,1.76,0,0,0,.24-.3l.1-.15a1.92,1.92,0,0,0,.18-.31c0-.06.05-.11.07-.17v-.07l13-35a3,3,0,0,0-5.42-2.56,2.26,2.26,0,0,0-.17.43l-1.13,3H24.94l-1.13-3A3,3,0,0,0,21,19H14a3,3,0,0,0,0,6h4.91L29.8,54.31A8,8,0,0,0,32,70H73a3,3,0,0,0,0-6H32a2,2,0,0,1,0-4ZM44,39h3V36a3,3,0,0,1,6,0v3h3a3,3,0,0,1,0,6H53v3a3,3,0,0,1-6,0V45H44a3,3,0,0,1,0-6Z" transform="translate(-11 -18.85)"/></svg>