<?xml version="1.0" encoding="utf-8"?>
<!-- Generator: Adobe Illustrator 24.1.1, SVG Export Plug-In . SVG Version: 6.00 Build 0)  -->
<svg version="1.1" id="Layer_1" xmlns="http://www.w3.org/2000/svg" xmlns:xlink="http://www.w3.org/1999/xlink" x="0px" y="0px"
	 viewBox="0 0 91 91" style="enable-background:new 0 0 91 91;" xml:space="preserve">
<g>
	<g>
		<g>
			<g>
				<path d="M69.5,46.5c-1.3,0-2.5,0.3-3.6,0.8c-1.1-3.2-4.1-5.4-7.7-5.4c-2.2,0-4.2,0.9-5.6,2.3c-1.5-1.4-3.5-2.3-5.6-2.3
					c-1.1,0-2.2,0.2-3.1,0.6V28.1c0-4.5-3.7-8.2-8.2-8.2s-8.2,3.7-8.2,8.2v17.2v1.9v4.2c-3.7,0.2-9.1,1.4-9.1,9.1
					c0,5.7,6.9,18.3,13.9,19.9c4.6,6.3,12,10.4,20.3,10.4c14.1,0,25.1-10.6,25.1-24.1c0-1.4-1.1-2.5-2.5-2.5c-1.4,0-2.5,1.1-2.5,2.5
					c0,10.7-8.8,19-20.1,19c-7,0-13.1-3.6-16.7-9c0-0.1-0.1-0.1-0.1-0.2c-2-3.1-3.2-6.9-3.2-10.9V47.2v-1.9V28.1
					c0-1.7,1.4-3.1,3.1-3.1c1.7,0,3.1,1.4,3.1,3.1V50v8.4v0.4c0,1.4,1.1,2.5,2.5,2.5c1.4,0,2.5-1.1,2.5-2.5v-0.4V50
					c0-1.7,1.4-3.1,3.1-3.1c1.7,0,3.1,1.4,3.1,3.1c0,0,0,0,0,0v8.8c0,0.1,0,0.2,0,0.3c0.1,1.2,1.2,2.2,2.5,2.2c1.3,0,2.4-1,2.5-2.3
					c0,0,0-0.1,0-0.2c0,0,0-0.1,0-0.1V50c0,0,0,0,0,0c0-1.7,1.4-3.1,3.1-3.1c1.7,0,3.1,1.4,3.1,3.1v4.5c0,0,0,0,0,0.1v4.2
					c0,0.1,0,0.3,0,0.3c0.2,1.2,1.2,2.2,2.5,2.2c1.3,0,2.3-1,2.5-2.2c0-0.1,0-0.1,0-0.2c0,0,0-0.1,0-0.1v-4.2c0-1.7,1.4-3.1,3.1-3.1
					c1.7,0,3.1,1.4,3.1,3.1v2.1c0,1.4,1.1,2.5,2.5,2.5c1.4,0,2.5-1.1,2.5-2.5v-2.1C77.7,50.1,74,46.5,69.5,46.5z M23.4,60.5
					c0-2.5,0.4-3.8,4.1-4v9.2c0,1.8,0.2,3.5,0.5,5.2C25.6,67.6,23.4,63.2,23.4,60.5z"/>
				<path d="M45.1,34.2c-1,1-0.9,2.6,0.1,3.5c0.5,0.5,1.1,0.7,1.7,0.7c0.7,0,1.3-0.3,1.8-0.8c2.8-3,4.5-6.9,4.8-11
					c0.3-4.7-1.3-9.2-4.4-12.7C46,10.4,41.7,8.3,37,8c-9.7-0.6-18,6.8-18.6,16.5c-0.3,4.7,1.3,9.2,4.4,12.7c0.9,1,2.5,1.1,3.5,0.2
					s1.1-2.5,0.2-3.5c-2.2-2.5-3.3-5.7-3.1-9.1c0.4-6.9,6.4-12.2,13.3-11.8c3.3,0.2,6.4,1.7,8.6,4.2c2.2,2.5,3.3,5.7,3.1,9.1
					C48.3,29.3,47.1,32.1,45.1,34.2z"/>
				<path d="M54.7,38.3c1.2,0.6,2.7,0.2,3.4-1c1.7-3.1,2.6-6.6,2.8-10.2c0.8-13.8-9.7-25.6-23.4-26.5c-6.7-0.4-13.1,1.8-18.1,6.2
					c-5,4.4-8,10.5-8.4,17.2c-0.5,9,3.8,17.6,11.3,22.5c0.4,0.3,0.9,0.4,1.4,0.4c0.8,0,1.6-0.4,2.1-1.1c0.8-1.2,0.4-2.7-0.7-3.5
					c-6-3.9-9.5-10.8-9-18c0.3-5.3,2.7-10.2,6.7-13.7c4-3.5,9.1-5.3,14.5-5c11,0.7,19.4,10.2,18.7,21.2c-0.2,2.9-0.9,5.6-2.3,8.1
					C53,36.1,53.5,37.7,54.7,38.3z"/>
			</g>
		</g>
	</g>
</g>
</svg>
